<?xml version="1.0" encoding="iso-8859-1"?>
<!-- Generator: Adobe Illustrator 19.0.0, SVG Export Plug-In . SVG Version: 6.00 Build 0)  -->
<svg version="1.1" id="Capa_1" xmlns="http://www.w3.org/2000/svg" xmlns:xlink="http://www.w3.org/1999/xlink" x="0px" y="0px"
	 viewBox="0 0 511.998 511.998" style="enable-background:new 0 0 511.998 511.998;" xml:space="preserve">
<path style="fill:#303C42;" d="M509.49,25.124c-2.031-2.406-5.01-3.792-8.156-3.792H74.667c-5.198,0-9.635,3.74-10.51,8.865
	L49.532,115.53c-0.531,3.104,0.333,6.271,2.354,8.677c2.031,2.406,5.01,3.792,8.156,3.792h327.427l-5.479,32H50.896
	c-5.198,0-9.635,3.74-10.51,8.865l-14.625,85.333c-0.531,3.104,0.333,6.271,2.354,8.677c2.031,2.406,5.01,3.792,8.156,3.792h327.438
	l-11.125,64.896l-146.719,46.677l-87.323-33.958l5.677-33.146c0.531-3.094-0.333-6.271-2.354-8.677
	c-2.031-2.406-5.01-3.792-8.156-3.792H27.125c-5.198,0-9.635,3.74-10.51,8.865l-16.458,96c-0.865,5,1.917,9.906,6.646,11.74
	l192,74.667c1.24,0.49,2.552,0.729,3.865,0.729c1.094,0,2.177-0.167,3.229-0.5l234.667-74.667c3.802-1.208,6.615-4.438,7.281-8.365
	l64-373.333C512.375,30.707,511.511,27.53,509.49,25.124z"/>
<path style="fill:#0288D1;" d="M427.917,397.134l-224.896,71.563L22.657,398.551l13.458-78.552h64.938l-5.01,29.26
	c-0.865,5,1.917,9.906,6.646,11.74l98.958,38.479c2.26,0.885,4.771,0.948,7.094,0.229l156.49-49.781
	c3.802-1.208,6.615-4.438,7.281-8.365l14.354-83.76c0.531-3.104-0.333-6.271-2.354-8.677c-2.031-2.406-5.01-3.792-8.156-3.792
	H48.917l10.969-64H390.98c5.198,0,9.635-3.74,10.51-8.865l9.146-53.333c0.531-3.094-0.333-6.271-2.354-8.677
	c-2.031-2.406-5.01-3.792-8.156-3.792H72.688l10.969-64h405.031L427.917,397.134z"/>
<polygon style="opacity:0.1;enable-background:new    ;" points="468.382,42.665 410.583,379.8 185.687,451.362 24.359,388.62 
	22.657,398.551 203.021,468.697 427.917,397.134 488.688,42.665 "/>
<linearGradient id="SVGID_1_" gradientUnits="userSpaceOnUse" x1="-45.4907" y1="641.2632" x2="-23.9178" y2="631.2032" gradientTransform="matrix(21.3333 0 0 -21.3333 996.3582 13791.6396)">
	<stop  offset="0" style="stop-color:#FFFFFF;stop-opacity:0.2"/>
	<stop  offset="1" style="stop-color:#FFFFFF;stop-opacity:0"/>
</linearGradient>
<path style="fill:url(#SVGID_1_);" d="M509.49,25.124c-2.031-2.406-5.01-3.792-8.156-3.792H74.667c-5.198,0-9.635,3.74-10.51,8.865
	L49.532,115.53c-0.531,3.104,0.333,6.271,2.354,8.677c2.031,2.406,5.01,3.792,8.156,3.792h327.427l-5.479,32H50.896
	c-5.198,0-9.635,3.74-10.51,8.865l-14.625,85.333c-0.531,3.104,0.333,6.271,2.354,8.677c2.031,2.406,5.01,3.792,8.156,3.792h327.438
	l-11.125,64.896l-146.719,46.677l-87.323-33.958l5.677-33.146c0.531-3.094-0.333-6.271-2.354-8.677
	c-2.031-2.406-5.01-3.792-8.156-3.792H27.125c-5.198,0-9.635,3.74-10.51,8.865l-16.458,96c-0.865,5,1.917,9.906,6.646,11.74
	l192,74.667c1.24,0.49,2.552,0.729,3.865,0.729c1.094,0,2.177-0.167,3.229-0.5l234.667-74.667c3.802-1.208,6.615-4.438,7.281-8.365
	l64-373.333C512.375,30.707,511.511,27.53,509.49,25.124z"/>
<g>
</g>
<g>
</g>
<g>
</g>
<g>
</g>
<g>
</g>
<g>
</g>
<g>
</g>
<g>
</g>
<g>
</g>
<g>
</g>
<g>
</g>
<g>
</g>
<g>
</g>
<g>
</g>
<g>
</g>
</svg>
