<?xml version="1.0" encoding="utf-8"?>
<!-- Generator: Adobe Illustrator 15.0.1, SVG Export Plug-In . SVG Version: 6.00 Build 0)  -->
<!DOCTYPE svg PUBLIC "-//W3C//DTD SVG 1.1//EN" "http://www.w3.org/Graphics/SVG/1.1/DTD/svg11.dtd">
<svg version="1.1" xmlns="http://www.w3.org/2000/svg" xmlns:xlink="http://www.w3.org/1999/xlink" x="0px" y="0px" width="2000px"
	 height="2000px" viewBox="0 0 2000 2000" enable-background="new 0 0 2000 2000" xml:space="preserve">
<g id="Logo_artwork">
</g>
<g id="Guides_to_delete">
	<g>
		<g>
			<polygon fill="#010101" points="350.867,1720.068 206.424,100 1793.576,100 1648.982,1719.811 999.033,1900 			"/>
			<polygon fill="#010101" points="1000.001,1762.27 1525.193,1616.666 1648.756,232.468 1000.001,232.468 			"/>
			<g>
				<polygon fill="#EBEBEB" points="1000.001,833.324 737.078,833.324 718.919,629.86 1000.001,629.86 1000.001,431.162 
					999.314,431.162 501.771,431.162 506.526,484.467 555.364,1032.019 1000.001,1032.019 				"/>
				<polygon fill="#EBEBEB" points="1000.001,1349.355 999.132,1349.585 777.844,1289.833 763.699,1131.365 656.17,1131.365 
					564.238,1131.365 592.075,1443.34 999.081,1556.33 1000.001,1556.08 				"/>
			</g>
			<g>
				<polygon fill="#FFFFFF" points="999.314,833.324 999.314,1032.019 1243.985,1032.019 1220.921,1289.709 999.314,1349.523 
					999.314,1556.234 1406.651,1443.34 1409.639,1409.776 1456.33,886.683 1461.178,833.324 1407.633,833.324 				"/>
				<polygon fill="#FFFFFF" points="999.314,431.162 999.314,554.569 999.314,629.376 999.314,629.86 1478.619,629.86 
					1478.619,629.86 1479.258,629.86 1483.24,585.197 1492.297,484.467 1497.048,431.162 				"/>
			</g>
		</g>
	</g>
</g>
</svg>
