<svg width="24" height="24" xmlns="http://www.w3.org/2000/svg">
 <title/>

 <g>
  <title>background</title>
  <rect fill="none" id="canvas_background" height="402" width="582" y="-1" x="-1"/>
 </g>
 <g>
  <title>Layer 1</title>
  <path style="--darkreader-inline-fill:#181a1b;" fill="#ffffff" id="svg_1" d="m19.9,19.200001l-4.299999,-7.200001l4.299999,-7.2l2.1,7.2l-2.1,7.200001zm-9.5,-0.700001l-5.4,-5.3l8.6,0l4.299999,7.2l-7.5,-1.9zm0,-13.1l7.5,-1.9l-4.299999,7.2l-8.7,0c0,0.1 5.5,-5.3 5.5,-5.3zm11,-5.4l-9.799999,2.5l-1.5,2.5l-2.900001,0l-7.2,7l7.2,7l2.900001,0l1.4,2.5l9.799999,2.5l2.6,-9.5l-1.4,-2.5l1.5,-2.5l-2.6,-9.5z"/>
 </g>
</svg>